HIERARCHY
ROOT Hips
{
  OFFSET 0.0 0.0 0.0
  CHANNELS 6 XPOSITION YPOSITION ZPOSITION ZROTATION YROTATION XROTATION 
  JOINT LeftUpLeg
  {
    OFFSET 8.9458038 -8.6670642 0.1016508
    CHANNELS 3 ZROTATION YROTATION XROTATION 
    JOINT LeftLeg
    {
      OFFSET -0.00030480000000000004 -44.2569346 4.0725598
      CHANNELS 3 ZROTATION YROTATION XROTATION 
      JOINT LeftFoot
      {
        OFFSET -0.25328880000000004 -41.911778 -4.1605708
        CHANNELS 3 ZROTATION YROTATION XROTATION 
        JOINT LeftToes
        {
          OFFSET -0.040005 -4.4151042 8.4991194
          CHANNELS 3 ZROTATION YROTATION XROTATION 
          End Site
          {
            OFFSET 0.08001 -0.047447199999999995 9.7797874
          }
        }
      }
    }
  }
  JOINT Spine
  {
    OFFSET 0.0 11.890502000000001 0.0
    CHANNELS 3 ZROTATION YROTATION XROTATION 
    JOINT Spine1
    {
      OFFSET -0.0 25.657505200000003 0.12705080000000002
      CHANNELS 3 ZROTATION YROTATION XROTATION 
      JOINT Head
      {
        OFFSET -0.0 8.734171 0.0111252
        CHANNELS 3 ZROTATION YROTATION XROTATION 
        End Site
        {
          OFFSET -0.28999179999999997 12.7742696 2.5136348
        }
      }
      JOINT LeftShoulder1
      {
        OFFSET 8.9899998 -0.3622548 -0.2200148
        CHANNELS 3 ZROTATION YROTATION XROTATION 
        JOINT LeftArm
        {
          OFFSET 10.2827582 -0.0033782 0.32209740000000003
          CHANNELS 3 ZROTATION YROTATION XROTATION 
          JOINT LeftForeArm
          {
            OFFSET 26.260552000000004 -0.026314399999999998 -1.4100810000000001
            CHANNELS 3 ZROTATION YROTATION XROTATION 
            JOINT LeftHand
            {
              OFFSET 22.0897958 0.1915922 1.017524
              CHANNELS 3 ZROTATION YROTATION XROTATION 
              End Site
              {
                OFFSET 13.4207758 -0.556387 1.503807
              }
            }
          }
        }
      }
      JOINT RightShoulder
      {
        OFFSET -8.9899998 -0.3622548 -0.219964
        CHANNELS 3 ZROTATION YROTATION XROTATION 
        JOINT RightArm
        {
          OFFSET -10.2827582 -0.0033782 0.3221482
          CHANNELS 3 ZROTATION YROTATION XROTATION 
          JOINT RightForeArm
          {
            OFFSET -26.3648698 -0.0263906 -1.4099794
            CHANNELS 3 ZROTATION YROTATION XROTATION 
            JOINT RightHand
            {
              OFFSET -22.0319092 0.1914652 1.0174732
              CHANNELS 3 ZROTATION YROTATION XROTATION 
              End Site
              {
                OFFSET -13.330174 -0.5566664 1.5037816
              }
            }
          }
        }
      }
    }
  }
  JOINT RightUpLeg
  {
    OFFSET -8.9458038 -8.6670642 0.1016508
    CHANNELS 3 ZROTATION YROTATION XROTATION 
    JOINT RightLeg
    {
      OFFSET 0.00015240000000000002 -44.256706 4.075049
      CHANNELS 3 ZROTATION YROTATION XROTATION 
      JOINT RightFoot
      {
        OFFSET 0.15628620000000001 -41.9119812 -4.1630854
        CHANNELS 3 ZROTATION YROTATION XROTATION 
        JOINT RightToes
        {
          OFFSET 0.0075692 -4.415155 8.4991702
          CHANNELS 3 ZROTATION YROTATION XROTATION 
          End Site
          {
            OFFSET 0.012192 -0.1375664 9.7800922
          }
        }
      }
    }
  }
}
MOTION
Frames: 12
Frame Time: 0.033333
37.281104 96.725486 -1.763268 -134.905 86.2878 -145.21 1.1292 3.4146 18.461 13.6095 12.9574 40.7221 -12.8263 0.9609 -2.7699 0.0 0.0 0.0 4.9194 -1.1536 6.2694 -0.0498 -1.1226 3.6371 -0.1069 -4.4454 -3.3608 -45.5166 -3.119 3.4573 -29.8445 -0.2283 1.2665 -11.5614 -5.6831 32.0553 5.3778 0.0211 -0.247 37.874 0.0442 1.5627 38.0415 6.6 -1.2952 10.1558 0.2397 32.2792 -13.4169 -1.1572 -0.4962 7.2287 -8.3504 -12.5799 -7.8879 -15.2039 23.7936 -5.3484 0.1348 -7.874 0.0 0.0 0.0 
40.339264 96.82505400000001 -1.3764260000000001 -139.004 85.3355 -149.552 1.3127 1.3779 12.1809 16.5042 10.6132 51.7407 -8.8763 1.22 4.4079 0.0 0.0 0.0 5.0794 -1.1122 7.0958 0.134 -1.0994 2.9372 0.3486 -5.3497 -3.3496 -45.3613 -3.0775 3.4244 -30.6498 1.2201 1.2982 -12.2131 -3.3703 35.1255 5.3778 0.0211 -0.247 37.7517 0.0342 1.5537 37.8518 10.5256 -0.8081 10.2172 1.663 30.8006 -13.7242 -0.8389 -0.5427 7.2308 -7.7343 -10.9562 -8.4447 -16.5855 25.6069 -4.7787 -0.0073 -10.5876 0.0 0.0 0.0 
43.413934 97.123504 -1.1059160000000001 -143.217 84.9136 -154.196 0.9952 -0.1199 6.4367 18.2626 8.4251 59.6953 -7.0101 1.0037 5.3788 0.0 0.0 0.0 5.2935 -0.7919 7.6916 -0.1997 -0.6721 3.0962 1.0472 -6.593 -4.0989 -45.2905 -3.0511 3.4055 -31.2492 2.5112 2.3338 -12.5101 -3.0778 37.1505 5.3778 0.0211 -0.247 37.5649 0.036 1.5477 37.4598 14.3487 0.3359 10.3357 4.2939 28.2243 -13.8826 -0.607 -0.5751 6.8161 -6.601 -8.6014 -8.811 -18.0346 26.4202 -4.1296 -0.0895 -12.5258 0.0 0.0 0.0 
46.57598 97.628202 -0.914146 -147.868 85.3276 -159.143 0.1373 -0.9399 1.2129 18.9888 7.0467 64.0227 -6.9008 0.8009 2.16 0.0 0.0 0.0 5.374 -0.2068 7.8604 -0.9311 0.1164 3.6181 1.6743 -7.6881 -4.9112 -45.2891 -3.0362 3.3977 -31.6956 4.1755 3.9317 -12.4693 -4.3755 36.9738 5.3778 0.0211 -0.247 37.125 0.0581 1.541 37.1584 18.1432 2.873 10.2618 7.3529 25.2649 -13.9168 -0.6939 -0.5667 6.1254 -5.2968 -5.6951 -8.7382 -19.2099 25.9655 -3.7447 -0.1447 -14.1631 0.0 0.0 0.0 
49.667413999999994 98.116898 -0.729488 -156.254 86.1202 -167.587 -1.0498 -1.8711 -3.6484 18.7929 6.6171 64.9156 -7.6236 0.6713 -1.4149 0.0 0.0 0.0 5.227 0.4043 7.9704 -1.8954 0.9881 3.8574 2.0313 -8.4817 -5.2789 -45.1032 -3.023 3.3774 -32.2129 6.0856 5.7947 -12.1109 -6.3064 34.8045 5.3778 0.0211 -0.247 36.4981 0.0804 1.5274 37.1959 21.7687 7.3759 9.5628 10.4514 21.6318 -13.9424 -0.8457 -0.5506 5.1899 -4.0352 -2.9719 -8.3693 -20.1884 25.1231 -3.3004 -0.185 -15.7501 0.0 0.0 0.0 
52.73548 98.586544 -0.586994 -168.387 86.9486 -179.776 -2.1567 -3.0523 -7.7101 18.0939 7.1716 62.6939 -8.057 0.5539 -3.8228 0.0 0.0 0.0 5.2485 0.9167 8.0422 -3.1492 1.8446 4.1436 2.1437 -9.0107 -5.4843 -44.7635 -3.0096 3.3461 -32.772 7.6915 7.223 -11.5112 -8.091 32.216 5.3778 0.0211 -0.247 35.7826 0.0973 1.5081 37.5603 25.1487 12.5343 8.2689 13.3505 17.48 -14.1881 -0.6758 -0.58 4.1876 -3.5472 -0.1512 -7.5382 -20.304 23.7393 -2.8073 -0.2024 -17.016 0.0 0.0 0.0 
55.79237 99.062286 -0.519176 174.582 87.8915 163.054 -2.8302 -3.9672 -10.6625 16.8636 8.5379 57.4649 -8.1332 0.4554 -5.3868 0.0 0.0 0.0 5.6246 1.3318 7.929 -4.5584 2.6831 4.8483 2.08 -9.176 -5.9601 -44.6353 -2.9997 3.3318 -33.086 8.7865 8.1753 -10.7933 -9.6177 30.0402 5.3778 0.0211 -0.247 35.0347 0.1236 1.4914 38.1139 28.389 17.8387 6.6081 15.9708 12.6134 -14.6508 -0.2605 -0.6484 3.2686 -3.9076 3.075 -6.237 -19.3479 21.491 -2.7001 -0.22 -17.8561 0.0 0.0 0.0 
58.780172 99.398328 -0.48133000000000004 140.82 88.6919 129.321 -2.9757 -4.594 -12.6521 15.0044 10.4831 49.3657 -8.6172 0.4617 -5.6768 0.0 0.0 0.0 6.0225 1.6219 7.5953 -5.7911 3.3732 5.6502 1.8822 -8.9145 -6.6278 -44.8528 -2.9934 3.3442 -32.9991 9.4323 8.9029 -10.1953 -10.7321 28.4608 5.3778 0.0211 -0.247 34.4448 0.1542 1.482 38.6162 31.4303 22.9419 4.8123 18.2372 7.8958 -14.9375 0.002 -0.6931 2.5326 -4.4129 6.0688 -5.1263 -17.9816 19.2188 -2.7357 -0.2454 -18.7189 0.0 0.0 0.0 
61.719968 99.59086 -0.438404 91.3061 88.7368 80.0818 -2.702 -5.437 -13.5961 12.739 12.9956 38.6975 -9.6794 0.609 -4.4811 0.0 0.0 0.0 6.2353 1.77 7.1391 -6.7349 3.8263 6.2077 1.6686 -8.4392 -7.1981 -45.072 -2.988 3.3571 -32.7079 9.5133 8.8745 -10.067 -10.9084 28.17 5.3778 0.0211 -0.247 34.1947 0.1671 1.4779 38.9363 33.8952 27.2288 3.0282 20.2066 4.3786 -14.8364 -0.0014 -0.6881 2.0068 -4.6763 8.6034 -4.4026 -16.7965 17.2117 -2.3688 -0.2447 -19.6502 0.0 0.0 0.0 
64.613282 99.82580999999999 -0.40563800000000005 57.9325 88.2548 46.8884 -2.0087 -6.6517 -13.1413 9.6062 15.589 25.8029 -10.3412 0.7783 -2.9305 0.0 0.0 0.0 6.4645 1.8577 6.8429 -7.4419 4.1399 6.6128 1.5741 -7.9481 -7.6347 -44.9874 -2.9832 3.3486 -32.5249 9.0231 7.857 -10.3632 -10.2018 29.168 5.3778 0.0211 -0.247 34.1309 0.1724 1.4776 39.2701 35.488 30.1449 1.4877 21.995 2.333 -14.6521 -0.0175 -0.6775 1.6433 -4.8792 11.4853 -3.5252 -15.7174 14.5229 -1.9189 -0.2186 -19.9569 0.0 0.0 0.0 
67.495166 99.991926 -0.38912800000000003 32.6998 87.5622 21.5631 -1.2076 -6.649 -11.6286 5.6282 15.4747 12.163 -10.0937 0.8355 -2.0318 0.0 0.0 0.0 6.7016 1.9361 6.7698 -7.7186 4.319 7.014 1.5786 -7.2869 -8.0105 -44.8053 -2.9848 3.3363 -32.4606 8.4571 6.8804 -10.5867 -9.5745 29.9839 5.3778 0.0211 -0.247 33.9632 0.1995 1.4822 39.9194 36.2974 31.6293 0.6085 23.5723 1.8089 -14.7124 0.0742 -0.6913 1.4653 -5.1214 14.8173 -2.5163 -14.5495 11.5459 -1.7579 -0.2054 -19.887 0.0 0.0 0.0 
70.509892 99.769422 -0.390652 15.6852 86.7428 4.4991 -1.1228 -3.3808 -10.5244 2.9686 10.8225 1.9044 -9.8106 0.8027 -2.1523 0.0 0.0 0.0 6.6034 1.9017 6.5305 -7.3572 4.1809 7.3533 1.6031 -6.2937 -8.2745 -44.8666 -2.9923 3.3446 -32.2554 8.2376 6.8212 -10.5356 -9.6555 29.7161 5.3778 0.0211 -0.247 33.7696 0.2381 1.4903 40.8043 36.4303 32.2877 0.4329 24.8163 2.6279 -14.8836 0.115 -0.7044 1.5035 -5.3022 17.563 -1.9938 -13.4483 10.0558 -1.1735 -0.1718 -20.7488 0.0 0.0 0.0 
